<?xml version="1.0" standalone="no"?>
<!DOCTYPE svg PUBLIC "-//W3C//DTD SVG 20010904//EN"
 "http://www.w3.org/TR/2001/REC-SVG-20010904/DTD/svg10.dtd">
<svg version="1.0" xmlns="http://www.w3.org/2000/svg"
 width="175.000000pt" height="139.000000pt" viewBox="0 0 175.000000 139.000000"
 preserveAspectRatio="xMidYMid meet">

<g transform="translate(0.000000,139.000000) scale(0.100000,-0.100000)"
fill="#000000" stroke="none">
<path d="M280 765 l0 -435 600 0 600 0 0 435 0 435 -600 0 -600 0 0 -435z
m693 235 c-1 -8 -23 -120 -50 -247 l-48 -233 -48 0 c-44 0 -47 2 -42 23 3 12
26 121 51 242 25 121 48 224 51 228 3 4 24 7 46 5 30 -2 42 -7 40 -18z m-248
-100 l29 -30 -48 -49 -49 -50 46 -54 47 -54 -28 -26 c-16 -15 -32 -27 -36 -27
-11 0 -156 147 -156 157 0 9 152 163 160 163 4 0 19 -14 35 -30z m428 -212
l-82 -82 -31 29 -30 29 45 46 c25 25 45 50 45 55 0 5 -21 31 -47 58 l-48 48
34 31 34 30 81 -81 81 -81 -82 -82z"/>
</g>
</svg>
